<svg width="32" height="32" viewBox="0 0 32 32" fill="none" xmlns="http://www.w3.org/2000/svg">
<path d="M16.0002 18.4C15.6644 18.4 15.3831 18.2848 15.1563 18.0544C14.9288 17.8248 14.815 17.54 14.815 17.2C14.815 16.86 14.9288 16.5748 15.1563 16.3444C15.3831 16.1148 15.6644 16 16.0002 16C16.336 16 16.6176 16.1148 16.8452 16.3444C17.072 16.5748 17.1853 16.86 17.1853 17.2C17.1853 17.54 17.072 17.8248 16.8452 18.0544C16.6176 18.2848 16.336 18.4 16.0002 18.4ZM11.2594 18.4C10.9236 18.4 10.6419 18.2848 10.4144 18.0544C10.1876 17.8248 10.0742 17.54 10.0742 17.2C10.0742 16.86 10.1876 16.5748 10.4144 16.3444C10.6419 16.1148 10.9236 16 11.2594 16C11.5952 16 11.8769 16.1148 12.1045 16.3444C12.3312 16.5748 12.4446 16.86 12.4446 17.2C12.4446 17.54 12.3312 17.8248 12.1045 18.0544C11.8769 18.2848 11.5952 18.4 11.2594 18.4ZM20.7409 18.4C20.4051 18.4 20.1238 18.2848 19.8971 18.0544C19.6695 17.8248 19.5557 17.54 19.5557 17.2C19.5557 16.86 19.6695 16.5748 19.8971 16.3444C20.1238 16.1148 20.4051 16 20.7409 16C21.0767 16 21.358 16.1148 21.5848 16.3444C21.8123 16.5748 21.9261 16.86 21.9261 17.2C21.9261 17.54 21.8123 17.8248 21.5848 18.0544C21.358 18.2848 21.0767 18.4 20.7409 18.4ZM16.0002 23.2C15.6644 23.2 15.3831 23.0848 15.1563 22.8544C14.9288 22.6248 14.815 22.34 14.815 22C14.815 21.66 14.9288 21.3752 15.1563 21.1456C15.3831 20.9152 15.6644 20.8 16.0002 20.8C16.336 20.8 16.6176 20.9152 16.8452 21.1456C17.072 21.3752 17.1853 21.66 17.1853 22C17.1853 22.34 17.072 22.6248 16.8452 22.8544C16.6176 23.0848 16.336 23.2 16.0002 23.2ZM11.2594 23.2C10.9236 23.2 10.6419 23.0848 10.4144 22.8544C10.1876 22.6248 10.0742 22.34 10.0742 22C10.0742 21.66 10.1876 21.3752 10.4144 21.1456C10.6419 20.9152 10.9236 20.8 11.2594 20.8C11.5952 20.8 11.8769 20.9152 12.1045 21.1456C12.3312 21.3752 12.4446 21.66 12.4446 22C12.4446 22.34 12.3312 22.6248 12.1045 22.8544C11.8769 23.0848 11.5952 23.2 11.2594 23.2ZM20.7409 23.2C20.4051 23.2 20.1238 23.0848 19.8971 22.8544C19.6695 22.6248 19.5557 22.34 19.5557 22C19.5557 21.66 19.6695 21.3752 19.8971 21.1456C20.1238 20.9152 20.4051 20.8 20.7409 20.8C21.0767 20.8 21.358 20.9152 21.5848 21.1456C21.8123 21.3752 21.9261 21.66 21.9261 22C21.9261 22.34 21.8123 22.6248 21.5848 22.8544C21.358 23.0848 21.0767 23.2 20.7409 23.2ZM7.70387 28C7.05201 28 6.49379 27.7652 6.0292 27.2956C5.5654 26.8252 5.3335 26.26 5.3335 25.6V8.8C5.3335 8.14 5.5654 7.5752 6.0292 7.1056C6.49379 6.6352 7.05201 6.4 7.70387 6.4H8.88905V4H11.2594V6.4H20.7409V4H23.1113V6.4H24.2965C24.9483 6.4 25.5065 6.6352 25.9711 7.1056C26.4349 7.5752 26.6668 8.14 26.6668 8.8V25.6C26.6668 26.26 26.4349 26.8252 25.9711 27.2956C25.5065 27.7652 24.9483 28 24.2965 28H7.70387ZM7.70387 25.6H24.2965V13.6H7.70387V25.6Z" fill="black"/>
</svg>
