<svg width="41" height="40" viewBox="0 0 41 40" fill="none" xmlns="http://www.w3.org/2000/svg">
<rect x="0.851562" width="40" height="40" rx="2" fill="#0078D2"/>
<path d="M11.8516 27V12C11.8516 11.7348 11.9569 11.4804 12.1445 11.2929C12.332 11.1054 12.5863 11 12.8516 11H21.8516C22.1168 11 22.3711 11.1054 22.5587 11.2929C22.7462 11.4804 22.8516 11.7348 22.8516 12V20H24.8516C25.382 20 25.8907 20.2107 26.2658 20.5858C26.6408 20.9609 26.8516 21.4696 26.8516 22V26C26.8516 26.2652 26.9569 26.5196 27.1445 26.7071C27.332 26.8946 27.5863 27 27.8516 27C28.1168 27 28.3711 26.8946 28.5587 26.7071C28.7462 26.5196 28.8516 26.2652 28.8516 26V19H26.8516C26.5863 19 26.332 18.8946 26.1445 18.7071C25.9569 18.5196 25.8516 18.2652 25.8516 18V14.414L24.1946 12.757L25.6086 11.343L30.5586 16.293C30.6516 16.3857 30.7253 16.4959 30.7756 16.6173C30.8259 16.7386 30.8517 16.8687 30.8516 17V26C30.8516 26.7956 30.5355 27.5587 29.9729 28.1213C29.4103 28.6839 28.6472 29 27.8516 29C27.0559 29 26.2929 28.6839 25.7302 28.1213C25.1676 27.5587 24.8516 26.7956 24.8516 26V22H22.8516V27H23.8516V29H10.8516V27H11.8516ZM17.8516 19V15L13.8516 21H16.8516V25L20.8516 19H17.8516Z" fill="white"/>
</svg>
