<svg width="41" height="40" viewBox="0 0 41 40" fill="none" xmlns="http://www.w3.org/2000/svg">
<rect x="0.851074" width="40" height="40" rx="2" fill="#B8B8B8"/>
<path d="M11.8511 27V12C11.8511 11.7348 11.9564 11.4804 12.144 11.2929C12.3315 11.1054 12.5859 11 12.8511 11H21.8511C22.1163 11 22.3706 11.1054 22.5582 11.2929C22.7457 11.4804 22.8511 11.7348 22.8511 12V20H24.8511C25.3815 20 25.8902 20.2107 26.2653 20.5858C26.6404 20.9609 26.8511 21.4696 26.8511 22V26C26.8511 26.2652 26.9564 26.5196 27.144 26.7071C27.3315 26.8946 27.5859 27 27.8511 27C28.1163 27 28.3706 26.8946 28.5582 26.7071C28.7457 26.5196 28.8511 26.2652 28.8511 26V19H26.8511C26.5859 19 26.3315 18.8946 26.144 18.7071C25.9564 18.5196 25.8511 18.2652 25.8511 18V14.414L24.1941 12.757L25.6081 11.343L30.5581 16.293C30.6511 16.3857 30.7248 16.4959 30.7751 16.6173C30.8254 16.7386 30.8512 16.8687 30.8511 17V26C30.8511 26.7956 30.535 27.5587 29.9724 28.1213C29.4098 28.6839 28.6467 29 27.8511 29C27.0554 29 26.2924 28.6839 25.7298 28.1213C25.1671 27.5587 24.8511 26.7956 24.8511 26V22H22.8511V27H23.8511V29H10.8511V27H11.8511ZM17.8511 19V15L13.8511 21H16.8511V25L20.8511 19H17.8511Z" fill="white"/>
</svg>
