<svg width="41" height="40" viewBox="0 0 41 40" fill="none" xmlns="http://www.w3.org/2000/svg">
<rect x="0.851074" width="40" height="40" rx="2" fill="#B8B8B8"/>
<path d="M17.8511 25H21.8511C23.1772 25 24.4489 24.4732 25.3866 23.5355C26.3243 22.5979 26.8511 21.3261 26.8511 20V19H27.8511C28.6467 19 29.4098 18.6839 29.9724 18.1213C30.535 17.5587 30.8511 16.7956 30.8511 16C30.8511 15.2044 30.535 14.4413 29.9724 13.8787C29.4098 13.3161 28.6467 13 27.8511 13H26.8511V12C26.8511 11.7348 26.7457 11.4804 26.5582 11.2929C26.3706 11.1054 26.1163 11 25.8511 11H13.8511C13.5859 11 13.3315 11.1054 13.144 11.2929C12.9564 11.4804 12.8511 11.7348 12.8511 12V20C12.8511 21.3261 13.3779 22.5979 14.3155 23.5355C15.2532 24.4732 16.525 25 17.8511 25ZM26.8511 15H27.8511C28.1163 15 28.3706 15.1054 28.5582 15.2929C28.7457 15.4804 28.8511 15.7348 28.8511 16C28.8511 16.2652 28.7457 16.5196 28.5582 16.7071C28.3706 16.8946 28.1163 17 27.8511 17H26.8511V15ZM14.8511 13H24.8511V20C24.8511 20.7956 24.535 21.5587 23.9724 22.1213C23.4098 22.6839 22.6467 23 21.8511 23H17.8511C17.0554 23 16.2924 22.6839 15.7298 22.1213C15.1671 21.5587 14.8511 20.7956 14.8511 20V13ZM29.8511 27H11.8511C11.5859 27 11.3315 27.1054 11.144 27.2929C10.9564 27.4804 10.8511 27.7348 10.8511 28C10.8511 28.2652 10.9564 28.5196 11.144 28.7071C11.3315 28.8946 11.5859 29 11.8511 29H29.8511C30.1163 29 30.3706 28.8946 30.5582 28.7071C30.7457 28.5196 30.8511 28.2652 30.8511 28C30.8511 27.7348 30.7457 27.4804 30.5582 27.2929C30.3706 27.1054 30.1163 27 29.8511 27Z" fill="white"/>
</svg>
