<svg width="41" height="40" viewBox="0 0 41 40" fill="none" xmlns="http://www.w3.org/2000/svg">
<rect x="0.851562" width="40" height="40" rx="2" fill="#0078D2"/>
<path d="M17.8516 25H21.8516C23.1776 25 24.4494 24.4732 25.3871 23.5355C26.3248 22.5979 26.8516 21.3261 26.8516 20V19H27.8516C28.6472 19 29.4103 18.6839 29.9729 18.1213C30.5355 17.5587 30.8516 16.7956 30.8516 16C30.8516 15.2044 30.5355 14.4413 29.9729 13.8787C29.4103 13.3161 28.6472 13 27.8516 13H26.8516V12C26.8516 11.7348 26.7462 11.4804 26.5587 11.2929C26.3711 11.1054 26.1168 11 25.8516 11H13.8516C13.5863 11 13.332 11.1054 13.1445 11.2929C12.9569 11.4804 12.8516 11.7348 12.8516 12V20C12.8516 21.3261 13.3783 22.5979 14.316 23.5355C15.2537 24.4732 16.5255 25 17.8516 25ZM26.8516 15H27.8516C28.1168 15 28.3711 15.1054 28.5587 15.2929C28.7462 15.4804 28.8516 15.7348 28.8516 16C28.8516 16.2652 28.7462 16.5196 28.5587 16.7071C28.3711 16.8946 28.1168 17 27.8516 17H26.8516V15ZM14.8516 13H24.8516V20C24.8516 20.7956 24.5355 21.5587 23.9729 22.1213C23.4103 22.6839 22.6472 23 21.8516 23H17.8516C17.0559 23 16.2929 22.6839 15.7302 22.1213C15.1676 21.5587 14.8516 20.7956 14.8516 20V13ZM29.8516 27H11.8516C11.5863 27 11.332 27.1054 11.1445 27.2929C10.9569 27.4804 10.8516 27.7348 10.8516 28C10.8516 28.2652 10.9569 28.5196 11.1445 28.7071C11.332 28.8946 11.5863 29 11.8516 29H29.8516C30.1168 29 30.3711 28.8946 30.5587 28.7071C30.7462 28.5196 30.8516 28.2652 30.8516 28C30.8516 27.7348 30.7462 27.4804 30.5587 27.2929C30.3711 27.1054 30.1168 27 29.8516 27Z" fill="white"/>
</svg>
