<svg width="41" height="40" viewBox="0 0 41 40" fill="none" xmlns="http://www.w3.org/2000/svg">
<rect x="0.851074" width="40" height="40" rx="2" fill="#B8B8B8"/>
<path d="M12.8511 22C12.8511 20.25 13.2677 18.6917 14.1011 17.325C14.9344 15.9583 15.8511 14.8083 16.8511 13.875C17.8511 12.9417 18.7677 12.229 19.6011 11.737L20.8511 11V14.3C20.8511 14.9167 21.0594 15.404 21.4761 15.762C21.8927 16.1207 22.3594 16.3 22.8761 16.3C23.1594 16.3 23.4304 16.2417 23.6891 16.125C23.9471 16.0083 24.1844 15.8167 24.4011 15.55L24.8511 15C26.0511 15.7 27.0177 16.6707 27.7511 17.912C28.4844 19.154 28.8511 20.5167 28.8511 22C28.8511 23.4667 28.4927 24.804 27.7761 26.012C27.0594 27.2207 26.1177 28.175 24.9511 28.875C25.2344 28.475 25.4554 28.0373 25.6141 27.562C25.7721 27.0873 25.8511 26.5833 25.8511 26.05C25.8511 25.3833 25.7261 24.7543 25.4761 24.163C25.2261 23.571 24.8677 23.0417 24.4011 22.575L20.8511 19.1L17.3261 22.575C16.8427 23.0583 16.4761 23.5917 16.2261 24.175C15.9761 24.7583 15.8511 25.3833 15.8511 26.05C15.8511 26.5833 15.9304 27.0873 16.0891 27.562C16.2471 28.0373 16.4677 28.475 16.7511 28.875C15.5844 28.175 14.6427 27.2207 13.9261 26.012C13.2094 24.804 12.8511 23.4667 12.8511 22ZM20.8511 21.9L22.9761 23.975C23.2594 24.2583 23.4761 24.575 23.6261 24.925C23.7761 25.275 23.8511 25.65 23.8511 26.05C23.8511 26.8667 23.5594 27.5623 22.9761 28.137C22.3927 28.7123 21.6844 29 20.8511 29C20.0177 29 19.3094 28.7123 18.7261 28.137C18.1427 27.5623 17.8511 26.8667 17.8511 26.05C17.8511 25.6667 17.9261 25.296 18.0761 24.938C18.2261 24.5793 18.4427 24.2583 18.7261 23.975L20.8511 21.9Z" fill="white"/>
</svg>
