<svg width="41" height="40" viewBox="0 0 41 40" fill="none" xmlns="http://www.w3.org/2000/svg">
<rect x="0.851562" width="40" height="40" rx="2" fill="#0078D2"/>
<path d="M12.8516 22C12.8516 20.25 13.2682 18.6917 14.1016 17.325C14.9349 15.9583 15.8516 14.8083 16.8516 13.875C17.8516 12.9417 18.7682 12.229 19.6016 11.737L20.8516 11V14.3C20.8516 14.9167 21.0599 15.404 21.4766 15.762C21.8932 16.1207 22.3599 16.3 22.8766 16.3C23.1599 16.3 23.4309 16.2417 23.6896 16.125C23.9476 16.0083 24.1849 15.8167 24.4016 15.55L24.8516 15C26.0516 15.7 27.0182 16.6707 27.7516 17.912C28.4849 19.154 28.8516 20.5167 28.8516 22C28.8516 23.4667 28.4932 24.804 27.7766 26.012C27.0599 27.2207 26.1182 28.175 24.9516 28.875C25.2349 28.475 25.4559 28.0373 25.6146 27.562C25.7726 27.0873 25.8516 26.5833 25.8516 26.05C25.8516 25.3833 25.7266 24.7543 25.4766 24.163C25.2266 23.571 24.8682 23.0417 24.4016 22.575L20.8516 19.1L17.3266 22.575C16.8432 23.0583 16.4766 23.5917 16.2266 24.175C15.9766 24.7583 15.8516 25.3833 15.8516 26.05C15.8516 26.5833 15.9309 27.0873 16.0896 27.562C16.2476 28.0373 16.4682 28.475 16.7516 28.875C15.5849 28.175 14.6432 27.2207 13.9266 26.012C13.2099 24.804 12.8516 23.4667 12.8516 22ZM20.8516 21.9L22.9766 23.975C23.2599 24.2583 23.4766 24.575 23.6266 24.925C23.7766 25.275 23.8516 25.65 23.8516 26.05C23.8516 26.8667 23.5599 27.5623 22.9766 28.137C22.3932 28.7123 21.6849 29 20.8516 29C20.0182 29 19.3099 28.7123 18.7266 28.137C18.1432 27.5623 17.8516 26.8667 17.8516 26.05C17.8516 25.6667 17.9266 25.296 18.0766 24.938C18.2266 24.5793 18.4432 24.2583 18.7266 23.975L20.8516 21.9Z" fill="white"/>
</svg>
