<svg width="41" height="40" viewBox="0 0 41 40" fill="none" xmlns="http://www.w3.org/2000/svg">
<rect x="0.851074" width="40" height="40" rx="2" fill="#B8B8B8"/>
<path d="M12.8511 29V13C12.8511 12.45 13.0471 11.979 13.4391 11.587C13.8304 11.1957 14.3011 11 14.8511 11H20.8511C21.4011 11 21.8721 11.1957 22.2641 11.587C22.6554 11.979 22.8511 12.45 22.8511 13V20H23.8511C24.4011 20 24.8721 20.1957 25.2641 20.587C25.6554 20.979 25.8511 21.45 25.8511 22V26.5C25.8511 26.7833 25.9471 27.0207 26.1391 27.212C26.3304 27.404 26.5677 27.5 26.8511 27.5C27.1344 27.5 27.3717 27.404 27.5631 27.212C27.7551 27.0207 27.8511 26.7833 27.8511 26.5V19.3C27.7011 19.3833 27.5427 19.4373 27.3761 19.462C27.2094 19.4873 27.0344 19.5 26.8511 19.5C26.1511 19.5 25.5594 19.2583 25.0761 18.775C24.5927 18.2917 24.3511 17.7 24.3511 17C24.3511 16.4667 24.4971 15.9873 24.7891 15.562C25.0804 15.1373 25.4677 14.8333 25.9511 14.65L23.8511 12.55L24.9011 11.5L28.6011 15.1C28.8511 15.35 29.0384 15.6417 29.1631 15.975C29.2884 16.3083 29.3511 16.65 29.3511 17V26.5C29.3511 27.2 29.1094 27.7917 28.6261 28.275C28.1427 28.7583 27.5511 29 26.8511 29C26.1511 29 25.5594 28.7583 25.0761 28.275C24.5927 27.7917 24.3511 27.2 24.3511 26.5V21.5H22.8511V29H12.8511ZM14.8511 18H20.8511V13H14.8511V18ZM26.8511 18C27.1344 18 27.3717 17.904 27.5631 17.712C27.7551 17.5207 27.8511 17.2833 27.8511 17C27.8511 16.7167 27.7551 16.479 27.5631 16.287C27.3717 16.0957 27.1344 16 26.8511 16C26.5677 16 26.3304 16.0957 26.1391 16.287C25.9471 16.479 25.8511 16.7167 25.8511 17C25.8511 17.2833 25.9471 17.5207 26.1391 17.712C26.3304 17.904 26.5677 18 26.8511 18Z" fill="white"/>
</svg>
