<svg width="41" height="40" viewBox="0 0 41 40" fill="none" xmlns="http://www.w3.org/2000/svg">
<rect x="0.851562" width="40" height="40" rx="2" fill="#0078D2"/>
<path d="M12.8516 29V13C12.8516 12.45 13.0476 11.979 13.4396 11.587C13.8309 11.1957 14.3016 11 14.8516 11H20.8516C21.4016 11 21.8726 11.1957 22.2646 11.587C22.6559 11.979 22.8516 12.45 22.8516 13V20H23.8516C24.4016 20 24.8726 20.1957 25.2646 20.587C25.6559 20.979 25.8516 21.45 25.8516 22V26.5C25.8516 26.7833 25.9476 27.0207 26.1396 27.212C26.3309 27.404 26.5682 27.5 26.8516 27.5C27.1349 27.5 27.3722 27.404 27.5636 27.212C27.7556 27.0207 27.8516 26.7833 27.8516 26.5V19.3C27.7016 19.3833 27.5432 19.4373 27.3766 19.462C27.2099 19.4873 27.0349 19.5 26.8516 19.5C26.1516 19.5 25.5599 19.2583 25.0766 18.775C24.5932 18.2917 24.3516 17.7 24.3516 17C24.3516 16.4667 24.4976 15.9873 24.7896 15.562C25.0809 15.1373 25.4682 14.8333 25.9516 14.65L23.8516 12.55L24.9016 11.5L28.6016 15.1C28.8516 15.35 29.0389 15.6417 29.1636 15.975C29.2889 16.3083 29.3516 16.65 29.3516 17V26.5C29.3516 27.2 29.1099 27.7917 28.6266 28.275C28.1432 28.7583 27.5516 29 26.8516 29C26.1516 29 25.5599 28.7583 25.0766 28.275C24.5932 27.7917 24.3516 27.2 24.3516 26.5V21.5H22.8516V29H12.8516ZM14.8516 18H20.8516V13H14.8516V18ZM26.8516 18C27.1349 18 27.3722 17.904 27.5636 17.712C27.7556 17.5207 27.8516 17.2833 27.8516 17C27.8516 16.7167 27.7556 16.479 27.5636 16.287C27.3722 16.0957 27.1349 16 26.8516 16C26.5682 16 26.3309 16.0957 26.1396 16.287C25.9476 16.479 25.8516 16.7167 25.8516 17C25.8516 17.2833 25.9476 17.5207 26.1396 17.712C26.3309 17.904 26.5682 18 26.8516 18Z" fill="white"/>
</svg>
