<svg width="41" height="41" viewBox="0 0 41 41" fill="none" xmlns="http://www.w3.org/2000/svg">
<path d="M35.875 17.0833C35.875 29.0416 20.5 39.2916 20.5 39.2916C20.5 39.2916 5.125 29.0416 5.125 17.0833C5.125 13.0056 6.74486 9.09492 9.62823 6.21155C12.5116 3.32817 16.4223 1.70831 20.5 1.70831C24.5777 1.70831 28.4884 3.32817 31.3718 6.21155C34.2551 9.09492 35.875 13.0056 35.875 17.0833Z" fill="#0078D2"/>
<path fill-rule="evenodd" clip-rule="evenodd" d="M20.5 3.41667C16.8753 3.41667 13.3992 4.85654 10.8362 7.41954C8.27317 9.98254 6.83329 13.4587 6.83329 17.0833C6.83329 22.3759 10.2768 27.5114 14.0526 31.497C15.9056 33.4529 17.7643 35.0541 19.1618 36.1669C19.6819 36.581 20.1361 36.926 20.5 37.1948C20.8638 36.926 21.3181 36.581 21.8381 36.1669C23.2356 35.0541 25.0943 33.4529 26.9473 31.497C30.7231 27.5114 34.1666 22.3759 34.1666 17.0833C34.1666 13.4587 32.7267 9.98254 30.1637 7.41954C27.6008 4.85654 24.1246 3.41667 20.5 3.41667ZM20.5 39.2917C19.5523 40.7131 19.5519 40.7128 19.5514 40.7125L19.5465 40.7092L19.5352 40.7016L19.496 40.6751C19.4627 40.6525 19.4153 40.62 19.3546 40.578C19.2333 40.494 19.0589 40.3715 18.8391 40.2128C18.3996 39.8954 17.7775 39.4321 17.0334 38.8396C15.5481 37.6568 13.5631 35.9482 11.5723 33.8468C7.66057 29.7177 3.41663 23.7491 3.41663 17.0833C3.41663 12.5526 5.21647 8.20734 8.42022 5.00359C11.624 1.79985 15.9692 0 20.5 0C25.0307 0 29.376 1.79985 32.5797 5.00359C35.7834 8.20734 37.5833 12.5526 37.5833 17.0833C37.5833 23.7491 33.3393 29.7177 29.4276 33.8468C27.4368 35.9482 25.4518 37.6568 23.9665 38.8396C23.2224 39.4321 22.6003 39.8954 22.1608 40.2128C21.941 40.3715 21.7666 40.494 21.6453 40.578C21.5846 40.62 21.5372 40.6525 21.5039 40.6751L21.4648 40.7016L21.4534 40.7092L21.4498 40.7116C21.4493 40.7119 21.4476 40.7131 20.5 39.2917ZM20.5 39.2917L21.4476 40.7131C20.8737 41.0956 20.1252 41.095 19.5514 40.7125L20.5 39.2917Z" fill="#0078D2"/>
<path d="M20.5 22.2083C23.3305 22.2083 25.625 19.9138 25.625 17.0833C25.625 14.2529 23.3305 11.9583 20.5 11.9583C17.6695 11.9583 15.375 14.2529 15.375 17.0833C15.375 19.9138 17.6695 22.2083 20.5 22.2083Z" fill="white"/>
<path fill-rule="evenodd" clip-rule="evenodd" d="M20.5 13.6667C18.613 13.6667 17.0833 15.1964 17.0833 17.0833C17.0833 18.9703 18.613 20.5 20.5 20.5C22.3869 20.5 23.9166 18.9703 23.9166 17.0833C23.9166 15.1964 22.3869 13.6667 20.5 13.6667ZM13.6666 17.0833C13.6666 13.3094 16.726 10.25 20.5 10.25C24.2739 10.25 27.3333 13.3094 27.3333 17.0833C27.3333 20.8573 24.2739 23.9167 20.5 23.9167C16.726 23.9167 13.6666 20.8573 13.6666 17.0833Z" fill="white"/>
</svg>
