<svg width="41" height="40" viewBox="0 0 41 40" fill="none" xmlns="http://www.w3.org/2000/svg">
<rect x="0.851562" width="40" height="40" rx="2" fill="#0078D2"/>
<path d="M14.3516 29V11H21.3516C23.0182 11 24.4349 11.5833 25.6016 12.75C26.7682 13.9167 27.3516 15.3333 27.3516 17C27.3516 18.6667 26.7682 20.0833 25.6016 21.25C24.4349 22.4167 23.0182 23 21.3516 23H18.3516V29H14.3516ZM18.3516 19H21.5516C22.1016 19 22.5726 18.804 22.9646 18.412C23.3559 18.0207 23.5516 17.55 23.5516 17C23.5516 16.45 23.3559 15.979 22.9646 15.587C22.5726 15.1957 22.1016 15 21.5516 15H18.3516V19Z" fill="white"/>
</svg>
