<svg width="41" height="40" viewBox="0 0 41 40" fill="none" xmlns="http://www.w3.org/2000/svg">
<rect x="0.851074" width="40" height="40" rx="2" fill="#B8B8B8"/>
<path d="M14.3511 29V11H21.3511C23.0177 11 24.4344 11.5833 25.6011 12.75C26.7677 13.9167 27.3511 15.3333 27.3511 17C27.3511 18.6667 26.7677 20.0833 25.6011 21.25C24.4344 22.4167 23.0177 23 21.3511 23H18.3511V29H14.3511ZM18.3511 19H21.5511C22.1011 19 22.5721 18.804 22.9641 18.412C23.3554 18.0207 23.5511 17.55 23.5511 17C23.5511 16.45 23.3554 15.979 22.9641 15.587C22.5721 15.1957 22.1011 15 21.5511 15H18.3511V19Z" fill="white"/>
</svg>
