<svg width="41" height="40" viewBox="0 0 41 40" fill="none" xmlns="http://www.w3.org/2000/svg">
<rect x="0.851562" width="40" height="40" rx="2" fill="#0078D2"/>
<path d="M10.8516 11.1786C10.8516 10.9986 10.9218 10.826 11.0468 10.6987C11.1719 10.5715 11.3414 10.5 11.5182 10.5H13.5183C13.667 10.5 13.8114 10.5507 13.9286 10.6439C14.0457 10.7371 14.1289 10.8675 14.1649 11.0144L14.7049 13.2143H30.1851C30.2863 13.2143 30.3863 13.2378 30.4773 13.283C30.5683 13.3282 30.648 13.3939 30.7103 13.4752C30.7726 13.5564 30.816 13.651 30.837 13.7519C30.8581 13.8527 30.8563 13.9571 30.8317 14.0571L28.8317 22.1999C28.7957 22.3468 28.7125 22.4772 28.5954 22.5704C28.4782 22.6636 28.3338 22.7142 28.1851 22.7143H16.1849C16.0362 22.7142 15.8918 22.6636 15.7746 22.5704C15.6575 22.4772 15.5743 22.3468 15.5383 22.1999L12.9982 11.8571H11.5182C11.3414 11.8571 11.1719 11.7857 11.0468 11.6584C10.9218 11.5311 10.8516 11.3585 10.8516 11.1786ZM15.0383 14.5714L15.7049 17.2857H17.5183V14.5714H15.0383ZM18.8516 14.5714V17.2857H21.5183V14.5714H18.8516ZM22.8517 14.5714V17.2857H25.5184V14.5714H22.8517ZM26.8517 14.5714V17.2857H28.6651L29.3317 14.5714H26.8517ZM28.3317 18.6429H26.8517V21.3571H27.6651L28.3317 18.6429ZM25.5184 18.6429H22.8517V21.3571H25.5184V18.6429ZM21.5183 18.6429H18.8516V21.3571H21.5183V18.6429ZM17.5183 18.6429H16.0383L16.7049 21.3571H17.5183V18.6429ZM17.5183 25.4286C17.1647 25.4286 16.8255 25.5716 16.5755 25.8261C16.3254 26.0806 16.1849 26.4258 16.1849 26.7857C16.1849 27.1457 16.3254 27.4908 16.5755 27.7454C16.8255 27.9999 17.1647 28.1429 17.5183 28.1429C17.8719 28.1429 18.2111 27.9999 18.4611 27.7454C18.7112 27.4908 18.8516 27.1457 18.8516 26.7857C18.8516 26.4258 18.7112 26.0806 18.4611 25.8261C18.2111 25.5716 17.8719 25.4286 17.5183 25.4286ZM14.8516 26.7857C14.8516 26.0658 15.1326 25.3755 15.6327 24.8664C16.1328 24.3574 16.811 24.0714 17.5183 24.0714C18.2255 24.0714 18.9038 24.3574 19.4039 24.8664C19.904 25.3755 20.185 26.0658 20.185 26.7857C20.185 27.5056 19.904 28.196 19.4039 28.705C18.9038 29.214 18.2255 29.5 17.5183 29.5C16.811 29.5 16.1328 29.214 15.6327 28.705C15.1326 28.196 14.8516 27.5056 14.8516 26.7857ZM26.8517 25.4286C26.4981 25.4286 26.1589 25.5716 25.9089 25.8261C25.6588 26.0806 25.5184 26.4258 25.5184 26.7857C25.5184 27.1457 25.6588 27.4908 25.9089 27.7454C26.1589 27.9999 26.4981 28.1429 26.8517 28.1429C27.2053 28.1429 27.5445 27.9999 27.7945 27.7454C28.0446 27.4908 28.1851 27.1457 28.1851 26.7857C28.1851 26.4258 28.0446 26.0806 27.7945 25.8261C27.5445 25.5716 27.2053 25.4286 26.8517 25.4286ZM24.185 26.7857C24.185 26.0658 24.466 25.3755 24.9661 24.8664C25.4662 24.3574 26.1445 24.0714 26.8517 24.0714C27.559 24.0714 28.2372 24.3574 28.7373 24.8664C29.2374 25.3755 29.5184 26.0658 29.5184 26.7857C29.5184 27.5056 29.2374 28.196 28.7373 28.705C28.2372 29.214 27.559 29.5 26.8517 29.5C26.1445 29.5 25.4662 29.214 24.9661 28.705C24.466 28.196 24.185 27.5056 24.185 26.7857Z" fill="white"/>
</svg>
