<svg width="41" height="40" viewBox="0 0 41 40" fill="none" xmlns="http://www.w3.org/2000/svg">
<rect x="0.851074" width="40" height="40" rx="2" fill="#B8B8B8"/>
<path d="M10.8511 11.1786C10.8511 10.9986 10.9213 10.826 11.0463 10.6987C11.1714 10.5715 11.3409 10.5 11.5177 10.5H13.5178C13.6665 10.5 13.8109 10.5507 13.9281 10.6439C14.0453 10.7371 14.1285 10.8675 14.1644 11.0144L14.7044 13.2143H30.1846C30.2859 13.2143 30.3858 13.2378 30.4768 13.283C30.5678 13.3282 30.6475 13.3939 30.7098 13.4752C30.7722 13.5564 30.8155 13.651 30.8365 13.7519C30.8576 13.8527 30.8558 13.9571 30.8313 14.0571L28.8312 22.1999C28.7953 22.3468 28.7121 22.4772 28.5949 22.5704C28.4777 22.6636 28.3333 22.7142 28.1846 22.7143H16.1845C16.0357 22.7142 15.8913 22.6636 15.7741 22.5704C15.657 22.4772 15.5738 22.3468 15.5378 22.1999L12.9978 11.8571H11.5177C11.3409 11.8571 11.1714 11.7857 11.0463 11.6584C10.9213 11.5311 10.8511 11.3585 10.8511 11.1786ZM15.0378 14.5714L15.7045 17.2857H17.5178V14.5714H15.0378ZM18.8511 14.5714V17.2857H21.5178V14.5714H18.8511ZM22.8512 14.5714V17.2857H25.5179V14.5714H22.8512ZM26.8512 14.5714V17.2857H28.6646L29.3312 14.5714H26.8512ZM28.3312 18.6429H26.8512V21.3571H27.6646L28.3312 18.6429ZM25.5179 18.6429H22.8512V21.3571H25.5179V18.6429ZM21.5178 18.6429H18.8511V21.3571H21.5178V18.6429ZM17.5178 18.6429H16.0378L16.7045 21.3571H17.5178V18.6429ZM17.5178 25.4286C17.1642 25.4286 16.825 25.5716 16.575 25.8261C16.3249 26.0806 16.1845 26.4258 16.1845 26.7857C16.1845 27.1457 16.3249 27.4908 16.575 27.7454C16.825 27.9999 17.1642 28.1429 17.5178 28.1429C17.8714 28.1429 18.2106 27.9999 18.4606 27.7454C18.7107 27.4908 18.8511 27.1457 18.8511 26.7857C18.8511 26.4258 18.7107 26.0806 18.4606 25.8261C18.2106 25.5716 17.8714 25.4286 17.5178 25.4286ZM14.8511 26.7857C14.8511 26.0658 15.1321 25.3755 15.6322 24.8664C16.1323 24.3574 16.8106 24.0714 17.5178 24.0714C18.2251 24.0714 18.9033 24.3574 19.4034 24.8664C19.9035 25.3755 20.1845 26.0658 20.1845 26.7857C20.1845 27.5056 19.9035 28.196 19.4034 28.705C18.9033 29.214 18.2251 29.5 17.5178 29.5C16.8106 29.5 16.1323 29.214 15.6322 28.705C15.1321 28.196 14.8511 27.5056 14.8511 26.7857ZM26.8512 25.4286C26.4976 25.4286 26.1585 25.5716 25.9084 25.8261C25.6584 26.0806 25.5179 26.4258 25.5179 26.7857C25.5179 27.1457 25.6584 27.4908 25.9084 27.7454C26.1585 27.9999 26.4976 28.1429 26.8512 28.1429C27.2048 28.1429 27.544 27.9999 27.794 27.7454C28.0441 27.4908 28.1846 27.1457 28.1846 26.7857C28.1846 26.4258 28.0441 26.0806 27.794 25.8261C27.544 25.5716 27.2048 25.4286 26.8512 25.4286ZM24.1845 26.7857C24.1845 26.0658 24.4655 25.3755 24.9656 24.8664C25.4657 24.3574 26.144 24.0714 26.8512 24.0714C27.5585 24.0714 28.2368 24.3574 28.7369 24.8664C29.237 25.3755 29.5179 26.0658 29.5179 26.7857C29.5179 27.5056 29.237 28.196 28.7369 28.705C28.2368 29.214 27.5585 29.5 26.8512 29.5C26.144 29.5 25.4657 29.214 24.9656 28.705C24.4655 28.196 24.1845 27.5056 24.1845 26.7857Z" fill="white"/>
</svg>
