<svg width="41" height="40" viewBox="0 0 41 40" fill="none" xmlns="http://www.w3.org/2000/svg">
<rect x="0.851562" width="40" height="40" rx="2" fill="#0078D2"/>
<path d="M26.8516 16.3158C26.5682 16.3158 26.3309 16.2151 26.1396 16.0137C25.9476 15.8116 25.8516 15.5614 25.8516 15.2632C25.8516 15.1228 25.8806 14.987 25.9386 14.8558C25.9972 14.7239 26.0682 14.614 26.1516 14.5263C26.3516 14.3158 26.8099 14.0789 27.5266 13.8158L28.6016 13.4211L28.2266 14.5526C28.1266 14.8509 28.0142 15.1404 27.8896 15.4211C27.7642 15.7018 27.6516 15.8947 27.5516 16C27.4682 16.0877 27.3642 16.1621 27.2396 16.2232C27.1142 16.2849 26.9849 16.3158 26.8516 16.3158ZM11.8516 30C11.3016 30 10.8309 29.794 10.4396 29.3821C10.0476 28.9695 9.85156 28.4737 9.85156 27.8947V13.1579C9.85156 12.5789 10.0476 12.0832 10.4396 11.6705C10.8309 11.2586 11.3016 11.0526 11.8516 11.0526H17.8516C18.4016 11.0526 18.8726 11.2586 19.2646 11.6705C19.6559 12.0832 19.8516 12.5789 19.8516 13.1579V21.7632C20.0016 21.7105 20.1599 21.6667 20.3266 21.6316C20.4932 21.5965 20.6682 21.5789 20.8516 21.5789C21.6849 21.5789 22.3932 21.886 22.9766 22.5C23.5599 23.114 23.8516 23.8596 23.8516 24.7368V26.8421C23.8516 27.1404 23.9476 27.3902 24.1396 27.5916C24.3309 27.7937 24.5682 27.8947 24.8516 27.8947C25.1349 27.8947 25.3722 27.7937 25.5636 27.5916C25.7556 27.3902 25.8516 27.1404 25.8516 26.8421V21.5789H24.8516V20.0789C23.9516 19.6754 23.2266 19.0439 22.6766 18.1842C22.1266 17.3246 21.8516 16.3509 21.8516 15.2632C21.8516 13.807 22.3392 12.566 23.3146 11.54C24.2892 10.5133 25.4682 10 26.8516 10C28.2349 10 29.4142 10.5133 30.3896 11.54C31.3642 12.566 31.8516 13.807 31.8516 15.2632C31.8516 16.3509 31.5766 17.3246 31.0266 18.1842C30.4766 19.0439 29.7516 19.6754 28.8516 20.0789V21.5789H27.8516V26.8421C27.8516 27.7193 27.5599 28.4649 26.9766 29.0789C26.3932 29.693 25.6849 30 24.8516 30C24.0182 30 23.3099 29.693 22.7266 29.0789C22.1432 28.4649 21.8516 27.7193 21.8516 26.8421V24.7368C21.8516 24.4386 21.7559 24.1884 21.5646 23.9863C21.3726 23.7849 21.1349 23.6842 20.8516 23.6842C20.5682 23.6842 20.3309 23.7849 20.1396 23.9863C19.9476 24.1884 19.8516 24.4386 19.8516 24.7368V27.8947C19.8516 28.4737 19.6559 28.9695 19.2646 29.3821C18.8726 29.794 18.4016 30 17.8516 30H11.8516ZM26.8516 18.4211C27.6849 18.4211 28.3932 18.114 28.9766 17.5C29.5599 16.886 29.8516 16.1404 29.8516 15.2632C29.8516 14.386 29.5599 13.6404 28.9766 13.0263C28.3932 12.4123 27.6849 12.1053 26.8516 12.1053C26.0182 12.1053 25.3099 12.4123 24.7266 13.0263C24.1432 13.6404 23.8516 14.386 23.8516 15.2632C23.8516 16.1404 24.1432 16.886 24.7266 17.5C25.3099 18.114 26.0182 18.4211 26.8516 18.4211ZM13.8516 17.3684V14.3947L12.6766 13.1579H11.8516V15.2632L13.8516 17.3684ZM15.8516 17.3684L17.8516 15.2632V13.1579H17.0266L15.8516 14.3947V17.3684ZM13.8516 22.6316V19.6579L11.8516 17.5526V20.5263L13.8516 22.6316ZM15.8516 22.6316L17.8516 20.5263V17.5526L15.8516 19.6579V22.6316ZM13.8516 27.8947V24.9211L11.8516 22.8158V25.7895L13.8516 27.8947ZM15.8516 27.8947L17.8516 25.7895V22.8158L15.8516 24.9211V27.8947Z" fill="white"/>
</svg>
