<svg width="41" height="40" viewBox="0 0 41 40" fill="none" xmlns="http://www.w3.org/2000/svg">
<rect x="0.851074" width="40" height="40" rx="2" fill="#B8B8B8"/>
<path d="M26.8511 16.3158C26.5677 16.3158 26.3304 16.2151 26.1391 16.0137C25.9471 15.8116 25.8511 15.5614 25.8511 15.2632C25.8511 15.1228 25.8801 14.987 25.9381 14.8558C25.9967 14.7239 26.0677 14.614 26.1511 14.5263C26.3511 14.3158 26.8094 14.0789 27.5261 13.8158L28.6011 13.4211L28.2261 14.5526C28.1261 14.8509 28.0137 15.1404 27.8891 15.4211C27.7637 15.7018 27.6511 15.8947 27.5511 16C27.4677 16.0877 27.3637 16.1621 27.2391 16.2232C27.1137 16.2849 26.9844 16.3158 26.8511 16.3158ZM11.8511 30C11.3011 30 10.8304 29.794 10.4391 29.3821C10.0471 28.9695 9.85107 28.4737 9.85107 27.8947V13.1579C9.85107 12.5789 10.0471 12.0832 10.4391 11.6705C10.8304 11.2586 11.3011 11.0526 11.8511 11.0526H17.8511C18.4011 11.0526 18.8721 11.2586 19.2641 11.6705C19.6554 12.0832 19.8511 12.5789 19.8511 13.1579V21.7632C20.0011 21.7105 20.1594 21.6667 20.3261 21.6316C20.4927 21.5965 20.6677 21.5789 20.8511 21.5789C21.6844 21.5789 22.3927 21.886 22.9761 22.5C23.5594 23.114 23.8511 23.8596 23.8511 24.7368V26.8421C23.8511 27.1404 23.9471 27.3902 24.1391 27.5916C24.3304 27.7937 24.5677 27.8947 24.8511 27.8947C25.1344 27.8947 25.3717 27.7937 25.5631 27.5916C25.7551 27.3902 25.8511 27.1404 25.8511 26.8421V21.5789H24.8511V20.0789C23.9511 19.6754 23.2261 19.0439 22.6761 18.1842C22.1261 17.3246 21.8511 16.3509 21.8511 15.2632C21.8511 13.807 22.3387 12.566 23.3141 11.54C24.2887 10.5133 25.4677 10 26.8511 10C28.2344 10 29.4137 10.5133 30.3891 11.54C31.3637 12.566 31.8511 13.807 31.8511 15.2632C31.8511 16.3509 31.5761 17.3246 31.0261 18.1842C30.4761 19.0439 29.7511 19.6754 28.8511 20.0789V21.5789H27.8511V26.8421C27.8511 27.7193 27.5594 28.4649 26.9761 29.0789C26.3927 29.693 25.6844 30 24.8511 30C24.0177 30 23.3094 29.693 22.7261 29.0789C22.1427 28.4649 21.8511 27.7193 21.8511 26.8421V24.7368C21.8511 24.4386 21.7554 24.1884 21.5641 23.9863C21.3721 23.7849 21.1344 23.6842 20.8511 23.6842C20.5677 23.6842 20.3304 23.7849 20.1391 23.9863C19.9471 24.1884 19.8511 24.4386 19.8511 24.7368V27.8947C19.8511 28.4737 19.6554 28.9695 19.2641 29.3821C18.8721 29.794 18.4011 30 17.8511 30H11.8511ZM26.8511 18.4211C27.6844 18.4211 28.3927 18.114 28.9761 17.5C29.5594 16.886 29.8511 16.1404 29.8511 15.2632C29.8511 14.386 29.5594 13.6404 28.9761 13.0263C28.3927 12.4123 27.6844 12.1053 26.8511 12.1053C26.0177 12.1053 25.3094 12.4123 24.7261 13.0263C24.1427 13.6404 23.8511 14.386 23.8511 15.2632C23.8511 16.1404 24.1427 16.886 24.7261 17.5C25.3094 18.114 26.0177 18.4211 26.8511 18.4211ZM13.8511 17.3684V14.3947L12.6761 13.1579H11.8511V15.2632L13.8511 17.3684ZM15.8511 17.3684L17.8511 15.2632V13.1579H17.0261L15.8511 14.3947V17.3684ZM13.8511 22.6316V19.6579L11.8511 17.5526V20.5263L13.8511 22.6316ZM15.8511 22.6316L17.8511 20.5263V17.5526L15.8511 19.6579V22.6316ZM13.8511 27.8947V24.9211L11.8511 22.8158V25.7895L13.8511 27.8947ZM15.8511 27.8947L17.8511 25.7895V22.8158L15.8511 24.9211V27.8947Z" fill="white"/>
</svg>
