<svg width="41" height="40" viewBox="0 0 41 40" fill="none" xmlns="http://www.w3.org/2000/svg">
<rect x="0.851074" width="40" height="40" rx="2" fill="#B8B8B8"/>
<path d="M13.4393 31V22.75H11.8511V16.7C11.8511 16.095 12.0586 15.5769 12.4737 15.1457C12.888 14.7152 13.3864 14.5 13.9687 14.5H17.1452C17.7275 14.5 18.2263 14.7152 18.6413 15.1457C19.0557 15.5769 19.2628 16.095 19.2628 16.7V22.75H17.6746V31H13.4393ZM15.557 13.4C14.9746 13.4 14.4763 13.1844 14.0619 12.7532C13.6468 12.3227 13.4393 11.805 13.4393 11.2C13.4393 10.595 13.6468 10.0769 14.0619 9.6457C14.4763 9.21523 14.9746 9 15.557 9C16.1393 9 16.638 9.21523 17.0531 9.6457C17.4674 10.0769 17.6746 10.595 17.6746 11.2C17.6746 11.805 17.4674 12.3227 17.0531 12.7532C16.638 13.1844 16.1393 13.4 15.557 13.4ZM23.4981 31V24.4H20.3217L23.0217 15.985C23.1628 15.5083 23.4233 15.1417 23.8031 14.885C24.1821 14.6283 24.6099 14.5 25.0864 14.5C25.5628 14.5 25.9906 14.6283 26.3697 14.885C26.7494 15.1417 27.0099 15.5083 27.1511 15.985L29.8511 24.4H26.6746V31H23.4981ZM25.0864 13.4C24.504 13.4 24.0057 13.1844 23.5913 12.7532C23.1763 12.3227 22.9687 11.805 22.9687 11.2C22.9687 10.595 23.1763 10.0769 23.5913 9.6457C24.0057 9.21523 24.504 9 25.0864 9C25.6687 9 26.1674 9.21523 26.5825 9.6457C26.9968 10.0769 27.204 10.595 27.204 11.2C27.204 11.805 26.9968 12.3227 26.5825 12.7532C26.1674 13.1844 25.6687 13.4 25.0864 13.4Z" fill="white"/>
</svg>
