<svg width="41" height="40" viewBox="0 0 41 40" fill="none" xmlns="http://www.w3.org/2000/svg">
<rect x="0.851562" width="40" height="40" rx="2" fill="#0078D2"/>
<path d="M13.4398 31V22.75H11.8516V16.7C11.8516 16.095 12.0591 15.5769 12.4742 15.1457C12.8885 14.7152 13.3869 14.5 13.9692 14.5H17.1457C17.728 14.5 18.2267 14.7152 18.6418 15.1457C19.0562 15.5769 19.2633 16.095 19.2633 16.7V22.75H17.6751V31H13.4398ZM15.5574 13.4C14.9751 13.4 14.4767 13.1844 14.0624 12.7532C13.6473 12.3227 13.4398 11.805 13.4398 11.2C13.4398 10.595 13.6473 10.0769 14.0624 9.6457C14.4767 9.21523 14.9751 9 15.5574 9C16.1398 9 16.6385 9.21523 17.0536 9.6457C17.4679 10.0769 17.6751 10.595 17.6751 11.2C17.6751 11.805 17.4679 12.3227 17.0536 12.7532C16.6385 13.1844 16.1398 13.4 15.5574 13.4ZM23.4986 31V24.4H20.3222L23.0222 15.985C23.1633 15.5083 23.4238 15.1417 23.8036 14.885C24.1826 14.6283 24.6104 14.5 25.0869 14.5C25.5633 14.5 25.9911 14.6283 26.3702 14.885C26.7499 15.1417 27.0104 15.5083 27.1516 15.985L29.8516 24.4H26.6751V31H23.4986ZM25.0869 13.4C24.5045 13.4 24.0062 13.1844 23.5918 12.7532C23.1767 12.3227 22.9692 11.805 22.9692 11.2C22.9692 10.595 23.1767 10.0769 23.5918 9.6457C24.0062 9.21523 24.5045 9 25.0869 9C25.6692 9 26.1679 9.21523 26.583 9.6457C26.9973 10.0769 27.2045 10.595 27.2045 11.2C27.2045 11.805 26.9973 12.3227 26.583 12.7532C26.1679 13.1844 25.6692 13.4 25.0869 13.4Z" fill="white"/>
</svg>
