<svg width="41" height="40" viewBox="0 0 41 40" fill="none" xmlns="http://www.w3.org/2000/svg">
<rect x="0.851562" width="40" height="40" rx="2" fill="#0078D2"/>
<path d="M15.2016 22.85L13.1016 20.7C14.0849 19.7167 15.2392 18.9377 16.5646 18.363C17.8892 17.7877 19.3182 17.5 20.8516 17.5C22.3849 17.5 23.8142 17.7917 25.1396 18.375C26.4642 18.9583 27.6182 19.75 28.6016 20.75L26.5016 22.85C25.7682 22.1167 24.9182 21.5417 23.9516 21.125C22.9849 20.7083 21.9516 20.5 20.8516 20.5C19.7516 20.5 18.7182 20.7083 17.7516 21.125C16.7849 21.5417 15.9349 22.1167 15.2016 22.85ZM10.9516 18.6L8.85156 16.5C10.3849 14.9333 12.1766 13.7083 14.2266 12.825C16.2766 11.9417 18.4849 11.5 20.8516 11.5C23.2182 11.5 25.4266 11.9417 27.4766 12.825C29.5266 13.7083 31.3182 14.9333 32.8516 16.5L30.7516 18.6C29.4682 17.3167 27.9809 16.3123 26.2896 15.587C24.5976 14.8623 22.7849 14.5 20.8516 14.5C18.9182 14.5 17.1056 14.8623 15.4136 15.587C13.7222 16.3123 12.2349 17.3167 10.9516 18.6ZM20.8516 28.5L24.3766 24.95C23.9266 24.5 23.4016 24.1457 22.8016 23.887C22.2016 23.629 21.5516 23.5 20.8516 23.5C20.1516 23.5 19.5016 23.629 18.9016 23.887C18.3016 24.1457 17.7766 24.5 17.3266 24.95L20.8516 28.5Z" fill="white"/>
</svg>
