<svg width="41" height="40" viewBox="0 0 41 40" fill="none" xmlns="http://www.w3.org/2000/svg">
<rect x="0.851074" width="40" height="40" rx="2" fill="#B8B8B8"/>
<path d="M15.2011 22.85L13.1011 20.7C14.0844 19.7167 15.2387 18.9377 16.5641 18.363C17.8887 17.7877 19.3177 17.5 20.8511 17.5C22.3844 17.5 23.8137 17.7917 25.1391 18.375C26.4637 18.9583 27.6177 19.75 28.6011 20.75L26.5011 22.85C25.7677 22.1167 24.9177 21.5417 23.9511 21.125C22.9844 20.7083 21.9511 20.5 20.8511 20.5C19.7511 20.5 18.7177 20.7083 17.7511 21.125C16.7844 21.5417 15.9344 22.1167 15.2011 22.85ZM10.9511 18.6L8.85107 16.5C10.3844 14.9333 12.1761 13.7083 14.2261 12.825C16.2761 11.9417 18.4844 11.5 20.8511 11.5C23.2177 11.5 25.4261 11.9417 27.4761 12.825C29.5261 13.7083 31.3177 14.9333 32.8511 16.5L30.7511 18.6C29.4677 17.3167 27.9804 16.3123 26.2891 15.587C24.5971 14.8623 22.7844 14.5 20.8511 14.5C18.9177 14.5 17.1051 14.8623 15.4131 15.587C13.7217 16.3123 12.2344 17.3167 10.9511 18.6ZM20.8511 28.5L24.3761 24.95C23.9261 24.5 23.4011 24.1457 22.8011 23.887C22.2011 23.629 21.5511 23.5 20.8511 23.5C20.1511 23.5 19.5011 23.629 18.9011 23.887C18.3011 24.1457 17.7761 24.5 17.3261 24.95L20.8511 28.5Z" fill="white"/>
</svg>
